<svg xmlns="http://www.w3.org/2000/svg" width="195" height="145" viewBox="-50 -50 250 200"><defs><style>.cls-1{fill:none;stroke:rgb(27, 59, 94);stroke-linecap:round;stroke-linejoin:round;stroke-width:5px;}</style></defs><title>Fichier 3</title><g id="Calque_2" data-name="Calque 2"><g id="Calque_1-2" data-name="Calque 1"><path class="cls-1" d="M22.85,75.88c1.92-1.92,13.82-9.6,30.72-16.13s20.74-17.66,28-26.11S114.09,4.3,141.51,2.53c14.59-.38,34.18,2.69,43.78,18s7.68,37.63,7.3,42.63a62.59,62.59,0,0,1-5,18.43c-2.3,4.61-41.86,32.26-52.23,36.1S86.6,141.93,80.84,141.54a56,56,0,0,1-16.9-4.61"/><path class="cls-1" d="M92.36,68.58s5,5.38-4.61,9.6-39.55,23-41.47,32.26,0,14.59,0,14.59,3.07,7.3,13.06,11.14"/><path class="cls-1" d="M17.86,96.61s4.61,26.88,26.5,22.66"/><path class="cls-1" d="M14.4,79.33s-2.3-7.68,0-8.83l2.3-1.15S29.38,58.6,27.08,54c6.14-4.61,18.43-7.3,36.87-2.3l2.3.77"/><path class="cls-1" d="M26.31,53.6C24,53.22,15.17,52.07,12.1,54S4.42,60.13,2.5,68.58A21.51,21.51,0,0,1,13.25,70.5"/><path class="cls-1" d="M34.76,78.57a21,21,0,0,0-12.67-1.92c-5.87.93-13.47,8.06-16.23,10.82A7,7,0,0,0,4,90.73a12.24,12.24,0,0,0,0,5.89c4.22-.77,18.43-1.15,23.42-.38C32.84,91.24,37.06,85.86,34.76,78.57Z"/><path class="cls-1" d="M83.91,119.65c7.33-11.9-1.92-16.9-6.14-18.43s-15.36,6.14-17.28,12.29-1.54,20.35,0,23.81c3.84,0,8.45-5,9.6-5.38S74.69,134.63,83.91,119.65Z"/><path class="cls-1" d="M135.75,8.29c-34.95,16.9-20.35,29.57,0,23s38.79-11.9,30-19.2"/></g></g></svg>