<svg xmlns="http://www.w3.org/2000/svg" viewBox="-50 -50 400 390.21"><defs><style>.cls-1{fill:none;stroke:#e2a000;stroke-linecap:round;stroke-linejoin:round;stroke-width:5px;}</style></defs><title>Micros</title><g id="Calque_2" data-name="Calque 2"><g id="Calque_1-2" data-name="Calque 1"><path class="cls-1" d="M107.39,74.34A36,36,0,1,0,74.86,41.82"/><path class="cls-1" d="M80.67,93.28a6.37,6.37,0,0,1,4.56-1.79A11.94,11.94,0,0,0,93.74,88l13.65-13.65A36,36,0,0,1,74.86,41.82L61.21,55.47a11.93,11.93,0,0,0-3.47,7.69,6.14,6.14,0,0,1-1.79,3.94L14.48,108.56A18.28,18.28,0,0,0,13,133a18,18,0,0,0,26.65,1.31Z"/><rect class="cls-1" x="6.39" y="132.32" width="5" height="16" rx="2.5" ry="2.5" transform="translate(101.83 34.82) rotate(45)"/><path class="cls-1" d="M83.13,18.7c17.68,26.16,20.51,29,48.79,48.79"/><path class="cls-1" d="M241.82,74.86a36,36,0,1,0,32.53,32.53"/><path class="cls-1" d="M268.54,55.93A6.37,6.37,0,0,1,264,57.72a11.94,11.94,0,0,0-8.5,3.49L241.82,74.86a36,36,0,0,1,32.53,32.53L288,93.74a11.93,11.93,0,0,0,3.47-7.69,6.14,6.14,0,0,1,1.79-3.94l41.47-41.47a18.28,18.28,0,0,0,1.48-24.44,18,18,0,0,0-26.65-1.31Z"/><rect class="cls-1" x="337.82" y="0.89" width="5" height="16" rx="2.5" ry="2.5" transform="translate(574.68 255.81) rotate(-135)"/><path class="cls-1" d="M266.08,130.51c-17.68-26.16-20.51-29-48.79-48.79"/><path class="cls-1" d="M307.39,265.34a36,36,0,1,0-32.53-32.53"/><path class="cls-1" d="M280.67,284.28a6.37,6.37,0,0,1,4.56-1.79,11.94,11.94,0,0,0,8.5-3.49l13.65-13.65a36,36,0,0,1-32.53-32.53l-13.65,13.65a11.93,11.93,0,0,0-3.47,7.69,6.14,6.14,0,0,1-1.79,3.94l-41.47,41.47A18.28,18.28,0,0,0,213,324a18,18,0,0,0,26.65,1.31Z"/><rect class="cls-1" x="206.39" y="323.32" width="5" height="16" rx="2.5" ry="2.5" transform="translate(295.46 -50.66) rotate(45)"/><path class="cls-1" d="M283.13,209.7c17.68,26.16,20.51,29,48.79,48.79"/><path class="cls-1" d="M41.82,265.86a36,36,0,1,0,32.53,32.53"/><path class="cls-1" d="M68.54,246.93A6.37,6.37,0,0,1,64,248.72a11.94,11.94,0,0,0-8.5,3.49L41.82,265.86a36,36,0,0,1,32.53,32.53L88,284.74a11.93,11.93,0,0,0,3.47-7.69,6.14,6.14,0,0,1,1.79-3.94l41.47-41.47a18.28,18.28,0,0,0,1.48-24.44,18,18,0,0,0-26.65-1.31Z"/><rect class="cls-1" x="137.82" y="191.89" width="5" height="16" rx="2.5" ry="2.5" transform="translate(98.21 440.45) rotate(-135)"/><path class="cls-1" d="M66.08,321.51c-17.68-26.16-20.51-29-48.79-48.79"/></g></g></svg>