<svg xmlns="http://www.w3.org/2000/svg" width="250" height="270" viewBox="-50 -10 250 270"><defs><style>.cls-1,.cls-2{fill:none;}.cls-2{stroke:#c13530;stroke-linecap:round;stroke-linejoin:round;stroke-width:5px;}</style></defs><g id="Calque_2" data-name="Calque 2"><g id="Calque_1-2" data-name="Calque 1"><path class="cls-1" d="M67,253.44l2,1.06,2.12-1.06c-.7,0-1.41.06-2.12.06S67.67,253.47,67,253.44Z"/><path class="cls-2" d="M34.52,240.6A52.85,52.85,0,0,0,67,253.44L40.75,239.5Z"/><path class="cls-2" d="M69,170.5l30.61-15.32,22.12,4.38a58.91,58.91,0,0,0-17.24-24.41l-4.88-1L69,149.5l-28.25-15L32.53,136a59.21,59.21,0,0,0-16.38,23.9l24.6-4.35Z"/><path class="cls-2" d="M69,149.5l30.61-15.32,4.88,1A55,55,0,0,0,69,122.5,55,55,0,0,0,32.53,136l8.22-1.45Z"/><path class="cls-2" d="M99.61,155.18,69,170.5l-28.25-15-24.6,4.35A75,75,0,0,0,11.5,186.5,82.15,82.15,0,0,0,13,202.4l27.71-4.9L69,212.5l30.61-15.32,25.39,5a82.2,82.2,0,0,0,1.5-15.7c0-1.71-.07-3.38-.17-5l-26.72-5.29L69,191.5l-28.25-15-28.25,5,28.25-5L69,191.5l30.61-15.32,26.72,5.29a73.07,73.07,0,0,0-4.61-21.91Z"/><path class="cls-2" d="M71.12,253.44a52.92,52.92,0,0,0,33-13.38l-4.48-.89Z"/><path class="cls-2" d="M69,212.5l-28.25-15L13,202.4a72.5,72.5,0,0,0,6.9,19.78l20.81-3.68L69,233.5l30.61-15.32,18.62,3.69A72.65,72.65,0,0,0,125,202.2l-25.39-5Z"/><path class="cls-2" d="M69,233.5l-28.25-15-20.81,3.68A62.15,62.15,0,0,0,34.52,240.6l6.23-1.1L67,253.44c.66,0,1.32.06,2,.06s1.41,0,2.12-.06l28.49-14.26,4.48.89a62.37,62.37,0,0,0,14.14-18.2l-18.62-3.69Z"/><path class="cls-2" d="M53.5,122.5c0-19-35-27-35-27s6-16,32-6c-11-21-34-35-48-34,19-14,51,7,51,7-1-31,34-60,34-60-8,33-10,52-4,60,0,0,32-21,51-7-14-1-37,13-48,34,26-10,32,6,32,6s-35,8-35,27"/></g></g></svg>